<svg width="20" height="14" viewBox="0 0 20 14" fill="none" xmlns="http://www.w3.org/2000/svg">
<path fill-rule="evenodd" clip-rule="evenodd" d="M19.6389 7.06714C19.6389 6.88387 19.5673 6.70812 19.4399 6.57854C19.3125 6.44895 19.1397 6.37615 18.9595 6.37615H2.93465L7.21094 2.02848C7.27411 1.96424 7.32422 1.88797 7.3584 1.80403C7.39259 1.72009 7.41019 1.63012 7.41019 1.53927C7.41019 1.44841 7.39259 1.35845 7.3584 1.27451C7.32422 1.19057 7.27411 1.1143 7.21094 1.05005C7.14777 0.985807 7.07277 0.934846 6.99024 0.900077C6.9077 0.865308 6.81924 0.847412 6.72991 0.847412C6.64057 0.847412 6.55211 0.865308 6.46957 0.900077C6.38704 0.934846 6.31204 0.985807 6.24887 1.05005L0.813497 6.57792C0.750225 6.64211 0.700026 6.71836 0.665774 6.8023C0.631522 6.88625 0.613892 6.97625 0.613892 7.06714C0.613892 7.15802 0.631522 7.24802 0.665774 7.33197C0.700026 7.41591 0.750225 7.49217 0.813497 7.55635L6.24887 13.0842C6.31204 13.1485 6.38704 13.1994 6.46957 13.2342C6.55211 13.269 6.64057 13.2869 6.72991 13.2869C6.81924 13.2869 6.9077 13.269 6.99024 13.2342C7.07277 13.1994 7.14777 13.1485 7.21094 13.0842C7.27411 13.02 7.32422 12.9437 7.3584 12.8598C7.39259 12.7758 7.41019 12.6859 7.41019 12.595C7.41019 12.5041 7.39259 12.4142 7.3584 12.3302C7.32422 12.2463 7.27411 12.17 7.21094 12.1058L2.93465 7.75812H18.9595C19.1397 7.75812 19.3125 7.68532 19.4399 7.55573C19.5673 7.42615 19.6389 7.2504 19.6389 7.06714Z" fill="white"/>
</svg>
