<svg width="20" height="14" viewBox="0 0 20 14" fill="none" xmlns="http://www.w3.org/2000/svg">
<path fill-rule="evenodd" clip-rule="evenodd" d="M0.956011 7.06714C0.956011 7.2504 1.02759 7.42615 1.15501 7.55574C1.28243 7.68532 1.45524 7.75812 1.63543 7.75812L17.6603 7.75813L13.384 12.1058C13.3208 12.17 13.2707 12.2463 13.2365 12.3302C13.2023 12.4142 13.1848 12.5042 13.1848 12.595C13.1848 12.6859 13.2023 12.7758 13.2365 12.8598C13.2707 12.9437 13.3208 13.02 13.384 13.0842C13.4472 13.1485 13.5222 13.1994 13.6047 13.2342C13.6872 13.269 13.7757 13.2869 13.865 13.2869C13.9544 13.2869 14.0428 13.269 14.1254 13.2342C14.2079 13.1994 14.2829 13.1485 14.3461 13.0842L19.7814 7.55636C19.8447 7.49217 19.8949 7.41592 19.9292 7.33197C19.9634 7.24803 19.981 7.15803 19.981 7.06714C19.981 6.97625 19.9634 6.88626 19.9292 6.80231C19.8949 6.71836 19.8447 6.64211 19.7814 6.57793L14.3461 1.05006C14.2829 0.985814 14.2079 0.934852 14.1254 0.900083C14.0428 0.865314 13.9544 0.847419 13.865 0.847419C13.7757 0.847419 13.6872 0.865314 13.6047 0.900083C13.5222 0.934852 13.4472 0.985814 13.384 1.05006C13.3208 1.1143 13.2707 1.19057 13.2365 1.27451C13.2024 1.35845 13.1848 1.44842 13.1848 1.53927C13.1848 1.63013 13.2024 1.7201 13.2365 1.80404C13.2707 1.88798 13.3208 1.96425 13.384 2.02849L17.6603 6.37616L1.63543 6.37616C1.45524 6.37616 1.28243 6.44896 1.15501 6.57854C1.02759 6.70813 0.956011 6.88388 0.956011 7.06714Z" fill="white"/>
</svg>
