<svg width="304" height="128" viewBox="0 0 304 128" fill="none" xmlns="http://www.w3.org/2000/svg">
<g clip-path="url(#clip0_1_3)">
<path d="M44.4817 36.6056L62.2827 41.5024M62.2827 41.5024L69.4031 59.8658M62.2827 41.5024L88.6283 6L110.702 41.5024M110.702 41.5024V53.7447M110.702 41.5024L124.942 29.8723" stroke="black" stroke-width="2"/>
<path d="M23.1204 107.61L43.7696 37.8298L70.7255 62.3142M81.5078 72.108L70.7255 62.3142M70.7255 62.3142L87.9162 7.83633L109.99 58.0294L102.157 72.108L125.654 29.2602L140.607 72.108" stroke="black" stroke-width="3"/>
<rect x="47.3298" y="62.9263" width="7.12042" height="11.018" fill="#FC3F3F"/>
<rect x="87.2042" y="42.1146" width="7.12042" height="11.018" fill="#FC3F3F"/>
<rect x="121.382" y="51.9083" width="7.12042" height="11.018" fill="#FC3F3F"/>
<path d="M80.7958 71.4959L85.7801 75.7807" stroke="black" stroke-width="2"/>
<path d="M102.869 69.6595L98.5969 75.1685" stroke="black" stroke-width="2"/>
<path d="M139.183 70.2717V73.9443" stroke="black" stroke-width="2"/>
<path d="M16 123C19.5602 103.004 51.7445 65.2167 152 74.0311" stroke="#FC3F3F" stroke-width="4"/>
<path d="M166.417 59V38H176.257C178.777 38 180.697 38.5 182.017 39.5C183.337 40.48 183.997 41.8 183.997 43.46C183.997 44.58 183.737 45.54 183.217 46.34C182.697 47.12 181.997 47.73 181.117 48.17C180.257 48.59 179.317 48.8 178.297 48.8L178.837 47.72C180.017 47.72 181.077 47.94 182.017 48.38C182.957 48.8 183.697 49.42 184.237 50.24C184.797 51.06 185.077 52.08 185.077 53.3C185.077 55.1 184.387 56.5 183.007 57.5C181.627 58.5 179.577 59 176.857 59H166.417ZM170.317 55.94H176.617C178.077 55.94 179.197 55.7 179.977 55.22C180.757 54.74 181.147 53.97 181.147 52.91C181.147 51.87 180.757 51.11 179.977 50.63C179.197 50.13 178.077 49.88 176.617 49.88H170.017V46.85H175.837C177.197 46.85 178.237 46.61 178.957 46.13C179.697 45.65 180.067 44.93 180.067 43.97C180.067 42.99 179.697 42.26 178.957 41.78C178.237 41.3 177.197 41.06 175.837 41.06H170.317V55.94ZM196.409 59.21C194.629 59.21 193.069 58.86 191.729 58.16C190.409 57.44 189.379 56.46 188.639 55.22C187.919 53.98 187.559 52.57 187.559 50.99C187.559 49.39 187.909 47.98 188.609 46.76C189.329 45.52 190.309 44.55 191.549 43.85C192.809 43.15 194.239 42.8 195.839 42.8C197.399 42.8 198.789 43.14 200.009 43.82C201.229 44.5 202.189 45.46 202.889 46.7C203.589 47.94 203.939 49.4 203.939 51.08C203.939 51.24 203.929 51.42 203.909 51.62C203.909 51.82 203.899 52.01 203.879 52.19H190.529V49.7H201.899L200.429 50.48C200.449 49.56 200.259 48.75 199.859 48.05C199.459 47.35 198.909 46.8 198.209 46.4C197.529 46 196.739 45.8 195.839 45.8C194.919 45.8 194.109 46 193.409 46.4C192.729 46.8 192.189 47.36 191.789 48.08C191.409 48.78 191.219 49.61 191.219 50.57V51.17C191.219 52.13 191.439 52.98 191.879 53.72C192.319 54.46 192.939 55.03 193.739 55.43C194.539 55.83 195.459 56.03 196.499 56.03C197.399 56.03 198.209 55.89 198.929 55.61C199.649 55.33 200.289 54.89 200.849 54.29L202.859 56.6C202.139 57.44 201.229 58.09 200.129 58.55C199.049 58.99 197.809 59.21 196.409 59.21ZM207.541 59V42.98H211.111V47.39L210.691 46.1C211.171 45.02 211.921 44.2 212.941 43.64C213.981 43.08 215.271 42.8 216.811 42.8V46.37C216.651 46.33 216.501 46.31 216.361 46.31C216.221 46.29 216.081 46.28 215.941 46.28C214.521 46.28 213.391 46.7 212.551 47.54C211.711 48.36 211.291 49.59 211.291 51.23V59H207.541ZM219.992 59V42.98H223.742V59H219.992ZM221.882 40.34C221.182 40.34 220.602 40.12 220.142 39.68C219.702 39.24 219.482 38.71 219.482 38.09C219.482 37.45 219.702 36.92 220.142 36.5C220.602 36.06 221.182 35.84 221.882 35.84C222.582 35.84 223.152 36.05 223.592 36.47C224.052 36.87 224.282 37.38 224.282 38C224.282 38.66 224.062 39.22 223.622 39.68C223.182 40.12 222.602 40.34 221.882 40.34ZM233.614 59.21C232.274 59.21 230.984 59.04 229.744 58.7C228.524 58.34 227.554 57.91 226.834 57.41L228.274 54.56C228.994 55.02 229.854 55.4 230.854 55.7C231.854 56 232.854 56.15 233.854 56.15C235.034 56.15 235.884 55.99 236.404 55.67C236.944 55.35 237.214 54.92 237.214 54.38C237.214 53.94 237.034 53.61 236.674 53.39C236.314 53.15 235.844 52.97 235.264 52.85C234.684 52.73 234.034 52.62 233.314 52.52C232.614 52.42 231.904 52.29 231.184 52.13C230.484 51.95 229.844 51.7 229.264 51.38C228.684 51.04 228.214 50.59 227.854 50.03C227.494 49.47 227.314 48.73 227.314 47.81C227.314 46.79 227.604 45.91 228.184 45.17C228.764 44.41 229.574 43.83 230.614 43.43C231.674 43.01 232.924 42.8 234.364 42.8C235.444 42.8 236.534 42.92 237.634 43.16C238.734 43.4 239.644 43.74 240.364 44.18L238.924 47.03C238.164 46.57 237.394 46.26 236.614 46.1C235.854 45.92 235.094 45.83 234.334 45.83C233.194 45.83 232.344 46 231.784 46.34C231.244 46.68 230.974 47.11 230.974 47.63C230.974 48.11 231.154 48.47 231.514 48.71C231.874 48.95 232.344 49.14 232.924 49.28C233.504 49.42 234.144 49.54 234.844 49.64C235.564 49.72 236.274 49.85 236.974 50.03C237.674 50.21 238.314 50.46 238.894 50.78C239.494 51.08 239.974 51.51 240.334 52.07C240.694 52.63 240.874 53.36 240.874 54.26C240.874 55.26 240.574 56.13 239.974 56.87C239.394 57.61 238.564 58.19 237.484 58.61C236.404 59.01 235.114 59.21 233.614 59.21ZM253.194 42.8C254.474 42.8 255.614 43.05 256.614 43.55C257.634 44.05 258.434 44.82 259.014 45.86C259.594 46.88 259.884 48.2 259.884 49.82V59H256.134V50.3C256.134 48.88 255.794 47.82 255.114 47.12C254.454 46.42 253.524 46.07 252.324 46.07C251.444 46.07 250.664 46.25 249.984 46.61C249.304 46.97 248.774 47.51 248.394 48.23C248.034 48.93 247.854 49.82 247.854 50.9V59H244.104V36.74H247.854V47.3L247.044 45.98C247.604 44.96 248.414 44.18 249.474 43.64C250.554 43.08 251.794 42.8 253.194 42.8ZM274.511 59V55.76L274.301 55.07V49.4C274.301 48.3 273.971 47.45 273.311 46.85C272.651 46.23 271.651 45.92 270.311 45.92C269.411 45.92 268.521 46.06 267.641 46.34C266.781 46.62 266.051 47.01 265.451 47.51L263.981 44.78C264.841 44.12 265.861 43.63 267.041 43.31C268.241 42.97 269.481 42.8 270.761 42.8C273.081 42.8 274.871 43.36 276.131 44.48C277.411 45.58 278.051 47.29 278.051 49.61V59H274.511ZM269.471 59.21C268.271 59.21 267.221 59.01 266.321 58.61C265.421 58.19 264.721 57.62 264.221 56.9C263.741 56.16 263.501 55.33 263.501 54.41C263.501 53.51 263.711 52.7 264.131 51.98C264.571 51.26 265.281 50.69 266.261 50.27C267.241 49.85 268.541 49.64 270.161 49.64H274.811V52.13H270.431C269.151 52.13 268.291 52.34 267.851 52.76C267.411 53.16 267.191 53.66 267.191 54.26C267.191 54.94 267.461 55.48 268.001 55.88C268.541 56.28 269.291 56.48 270.251 56.48C271.171 56.48 271.991 56.27 272.711 55.85C273.451 55.43 273.981 54.81 274.301 53.99L274.931 56.24C274.571 57.18 273.921 57.91 272.981 58.43C272.061 58.95 270.891 59.21 269.471 59.21ZM191.044 96L200.494 75H204.334L213.814 96H209.734L201.604 77.07H203.164L195.064 96H191.044ZM195.394 91.14L196.444 88.08H207.784L208.834 91.14H195.394ZM222.545 96.3C221.085 96.3 219.775 96.06 218.615 95.58C217.455 95.1 216.545 94.44 215.885 93.6C215.225 92.76 214.895 91.79 214.895 90.69C214.895 89.69 215.115 88.79 215.555 87.99C215.995 87.19 216.695 86.43 217.655 85.71C218.615 84.97 219.845 84.23 221.345 83.49C222.525 82.91 223.445 82.4 224.105 81.96C224.785 81.52 225.255 81.1 225.515 80.7C225.795 80.3 225.935 79.88 225.935 79.44C225.935 78.84 225.725 78.36 225.305 78C224.885 77.62 224.285 77.43 223.505 77.43C222.665 77.43 222.005 77.64 221.525 78.06C221.065 78.46 220.835 78.99 220.835 79.65C220.835 79.99 220.895 80.32 221.015 80.64C221.155 80.96 221.395 81.32 221.735 81.72C222.075 82.12 222.565 82.63 223.205 83.25L234.305 93.9L232.235 96.33L220.235 84.81C219.555 84.15 219.005 83.54 218.585 82.98C218.165 82.42 217.865 81.88 217.685 81.36C217.505 80.82 217.415 80.27 217.415 79.71C217.415 78.73 217.665 77.87 218.165 77.13C218.665 76.37 219.375 75.79 220.295 75.39C221.215 74.97 222.285 74.76 223.505 74.76C224.645 74.76 225.625 74.95 226.445 75.33C227.285 75.69 227.935 76.22 228.395 76.92C228.875 77.6 229.115 78.42 229.115 79.38C229.115 80.22 228.905 81 228.485 81.72C228.065 82.42 227.405 83.09 226.505 83.73C225.625 84.37 224.445 85.04 222.965 85.74C221.865 86.28 220.995 86.79 220.355 87.27C219.715 87.75 219.255 88.23 218.975 88.71C218.695 89.19 218.555 89.72 218.555 90.3C218.555 90.88 218.725 91.39 219.065 91.83C219.425 92.27 219.925 92.62 220.565 92.88C221.205 93.12 221.955 93.24 222.815 93.24C224.095 93.24 225.255 92.96 226.295 92.4C227.355 91.82 228.245 90.96 228.965 89.82C229.685 88.68 230.205 87.27 230.525 85.59L233.555 86.58C233.135 88.6 232.405 90.34 231.365 91.8C230.345 93.24 229.085 94.35 227.585 95.13C226.085 95.91 224.405 96.3 222.545 96.3ZM237.667 96V75H241.567V92.7H252.547V96H237.667Z" fill="black"/>
</g>
<defs>
<clipPath id="clip0_1_3">
<rect width="304" height="128" fill="white"/>
</clipPath>
</defs>
</svg>
